<?xml version="1.0" standalone="no"?>
<!DOCTYPE svg PUBLIC "-//W3C//DTD SVG 20010904//EN"
 "http://www.w3.org/TR/2001/REC-SVG-20010904/DTD/svg10.dtd">
<svg version="1.0" xmlns="http://www.w3.org/2000/svg"
 width="320.000000pt" height="320.000000pt" viewBox="0 0 320.000000 320.000000"
 preserveAspectRatio="xMidYMid meet">
<metadata>
Created by potrace 1.11, written by Peter Selinger 2001-2013
</metadata>
<g transform="translate(0.000000,320.000000) scale(0.100000,-0.100000)"
fill="#000000" stroke="none">
<path d="M1260 3181 c-558 -119 -1015 -526 -1190 -1061 -61 -186 -70 -250 -70
-520 0 -270 9 -334 70 -520 157 -479 536 -855 1022 -1014 174 -57 242 -66 508
-66 266 0 334 9 508 66 553 181 970 651 1076 1213 22 117 22 525 0 642 -106
562 -523 1032 -1076 1213 -176 58 -241 66 -517 65 -197 0 -263 -4 -331 -18z
m616 -22 c149 -24 302 -77 454 -155 153 -79 275 -168 400 -294 116 -117 200
-234 279 -388 120 -237 173 -457 173 -722 0 -265 -53 -485 -173 -722 -79 -154
-163 -271 -279 -388 -125 -126 -247 -215 -400 -294 -243 -125 -461 -178 -730
-178 -269 0 -487 53 -730 178 -153 79 -275 168 -400 294 -116 117 -200 234
-279 388 -120 237 -173 457 -173 722 0 265 53 485 173 722 79 154 163 271 279
388 125 126 247 215 400 294 323 166 645 216 1006 155z"/>
<path d="M1018 2386 c-125 -61 -227 -114 -227 -118 -1 -4 8 -10 20 -13 12 -4
17 -10 13 -15 -17 -15 -79 -19 -109 -6 -29 12 -41 7 -309 -126 -153 -76 -285
-138 -292 -138 -24 0 -15 -14 24 -37 20 -12 55 -33 77 -47 l41 -25 289 150
c159 82 293 149 297 149 5 0 8 -8 8 -18 0 -16 -25 -30 -483 -273 l-68 -36 87
-53 c66 -40 91 -50 103 -43 9 5 98 56 199 113 164 92 185 102 207 92 26 -12
26 -11 29 27 1 13 126 94 133 87 2 -1 5 -31 8 -67 11 -137 19 -158 53 -159 10
0 12 10 7 39 -9 52 7 59 55 26 39 -27 60 -27 60 1 0 8 5 12 10 9 6 -4 17 -1
25 5 9 8 15 8 15 2 0 -5 14 -15 31 -21 41 -14 39 -15 39 12 l1 22 18 -22 c11
-13 24 -23 30 -23 20 0 31 -44 14 -54 -12 -7 -11 -10 8 -20 33 -16 30 -31 -11
-58 l-35 -24 -54 30 c-43 23 -57 27 -70 18 -9 -7 -26 -16 -38 -22 -13 -5 -23
-14 -23 -19 0 -13 58 -60 97 -79 25 -12 30 -19 22 -28 -18 -22 0 -34 40 -28
38 6 79 -10 199 -78 l42 -25 -20 -26 c-20 -25 -20 -54 0 -42 4 2 19 -5 34 -16
24 -19 33 -19 61 3 86 67 90 76 49 103 -19 12 -23 19 -14 25 8 5 13 34 14 79
2 74 8 87 41 93 15 2 21 -3 23 -23 2 -18 13 -31 38 -42 44 -21 44 -21 44 3 0
25 0 25 63 -6 64 -32 62 -31 49 -47 -6 -7 -14 -31 -18 -52 -6 -37 -22 -53
-205 -210 -109 -93 -217 -184 -239 -201 l-40 -32 130 -81 c72 -45 134 -81 139
-81 8 0 133 118 430 404 l114 110 -50 24 c-45 22 -49 27 -49 58 1 26 5 34 20
34 15 0 17 -5 12 -30 -5 -30 -3 -31 79 -72 47 -24 85 -46 85 -51 0 -5 -5 -7
-11 -5 -6 2 -30 -15 -53 -37 -108 -103 -495 -489 -493 -491 12 -11 299 -185
301 -183 1 2 116 131 254 286 139 155 252 286 252 291 0 5 -25 19 -54 32 -51
21 -55 25 -49 50 3 15 0 31 -6 34 -19 12 -12 28 10 21 14 -5 28 0 44 15 l23
22 62 -28 61 -27 29 29 c77 79 339 378 335 383 -3 2 -60 26 -128 52 l-122 48
-191 -187 c-105 -103 -192 -189 -192 -192 -1 -3 24 -18 55 -34 50 -24 55 -29
39 -38 -13 -7 -20 -7 -25 0 -10 17 -244 124 -270 124 -23 0 -23 2 -7 13 15 11
26 9 72 -12 l55 -25 47 43 c114 104 342 324 342 330 0 8 -206 89 -223 89 -7 0
-99 -75 -206 -165 -106 -91 -197 -165 -202 -165 -25 0 -3 -20 42 -40 31 -13
48 -25 42 -31 -5 -5 -33 3 -68 20 -33 16 -73 35 -90 41 l-29 12 24 18 c20 15
23 21 13 31 -7 7 -13 21 -13 31 0 10 -4 18 -8 18 -10 0 -58 -51 -63 -67 -3 -9
-9 -9 -26 0 -20 11 -19 14 44 62 117 90 123 96 123 121 0 16 4 23 11 18 11 -7
59 14 59 26 0 4 -13 13 -29 20 -31 12 -44 39 -30 61 11 18 12 62 1 55 -14 -8
-46 54 -34 66 16 16 3 38 -22 38 -14 0 -28 11 -40 30 -9 17 -22 28 -27 24 -6
-3 -1 -20 11 -40 22 -34 20 -54 -4 -54 -8 0 -19 7 -26 15 -7 8 -20 15 -29 15
-14 -1 -14 -2 2 -14 17 -13 16 -15 -15 -37 -18 -13 -37 -29 -41 -36 -6 -9 -13
-7 -28 8 -15 15 -23 18 -29 10 -5 -9 -29 -2 -85 24 -73 33 -79 35 -101 20 -13
-8 -24 -17 -24 -19 0 -2 32 -17 70 -32 67 -26 70 -29 70 -60 0 -25 -7 -38 -30
-54 -16 -12 -30 -17 -30 -12 0 16 -33 24 -42 10 -4 -7 -8 -25 -8 -40 0 -26 -1
-26 -27 -12 -46 23 -104 15 -82 -12 8 -10 8 -14 0 -14 -14 0 -121 53 -121 60
1 3 43 31 95 63 86 53 95 61 95 88 0 21 -4 28 -12 23 -10 -6 -10 -4 0 7 6 7
12 26 12 42 0 20 -4 26 -12 21 -7 -4 -5 2 5 13 18 21 23 63 8 63 -9 0 -222
-129 -284 -172 -19 -13 -37 -18 -53 -14 -21 6 -24 3 -24 -24 0 -33 -2 -35 -31
-20 -24 13 -25 32 -1 28 13 -2 17 4 17 32 0 35 1 36 167 130 92 52 166 99 165
104 -2 5 -37 22 -78 38 l-75 29 -224 -120 c-123 -67 -228 -121 -234 -121 -6 0
-17 4 -24 9 -10 6 41 37 165 101 231 120 266 141 256 151 -4 4 -37 19 -73 32
l-65 25 -227 -112z m292 64 c-50 -34 -415 -210 -428 -207 -20 4 394 216 423
216 17 1 18 -1 5 -9z m195 -88 c-46 -28 -289 -160 -300 -164 -5 -2 -12 1 -13
6 -5 13 288 175 318 176 25 0 25 0 -5 -18z m-756 -176 c-2 -2 -125 -65 -272
-140 -174 -89 -275 -135 -285 -131 -12 5 75 53 268 150 157 78 287 139 289
133 1 -5 1 -10 0 -12z m291 -36 c13 -9 13 -12 -2 -21 -10 -5 -18 -17 -18 -24
0 -8 -5 -15 -11 -15 -6 0 -8 7 -5 16 3 9 6 24 6 35 0 21 8 24 30 9z m1058 -52
l20 -31 -35 -24 c-32 -22 -39 -23 -66 -12 l-29 12 26 20 c14 10 26 25 26 32 0
11 22 32 37 35 0 0 10 -14 21 -32z m-1134 -7 c3 -4 -6 -13 -20 -20 -32 -14
-34 -14 -34 3 0 21 43 35 54 17z m-94 -45 c0 -20 -458 -272 -472 -258 -7 7 -3
15 13 25 26 16 452 247 456 247 2 0 3 -6 3 -14z m264 -27 c-6 -11 -24 -2 -24
11 0 5 7 7 15 4 8 -4 12 -10 9 -15z m849 -52 c-10 -10 -30 -25 -45 -33 -26
-14 -28 -13 -28 7 0 16 5 20 20 16 17 -4 20 0 20 24 0 27 1 28 25 17 24 -11
24 -12 8 -31z m661 7 c9 -3 16 -9 16 -13 0 -4 -83 -83 -185 -175 -149 -135
-189 -166 -206 -161 -11 4 -19 11 -17 15 2 7 368 338 375 340 1 0 8 -3 17 -6z
m-854 -140 c0 -20 -4 -25 -16 -20 -9 3 -18 6 -20 6 -2 0 -4 9 -4 20 0 13 7 20
20 20 15 0 20 -7 20 -26z m1184 7 c6 -9 -340 -381 -353 -381 -3 0 -14 7 -23
14 -16 11 0 31 158 194 163 169 202 200 218 173z m-1298 -127 c3 -17 4 -65 2
-105 -3 -54 -8 -75 -20 -83 -24 -15 -31 -3 -17 27 10 21 9 30 -2 43 -7 9 -12
33 -10 55 2 34 -1 41 -29 57 l-31 19 27 21 c37 26 71 12 80 -34z m-156 -34 c0
-5 -5 -10 -11 -10 -5 0 -7 5 -4 10 3 6 8 10 11 10 2 0 4 -4 4 -10z m650 -194
c0 -2 -7 -9 -15 -16 -12 -10 -15 -10 -15 4 0 9 7 16 15 16 8 0 15 -2 15 -4z
m-122 -111 c-179 -166 -393 -355 -402 -355 -7 0 -20 6 -29 13 -14 10 12 37
211 213 221 196 227 200 230 171 2 -16 -2 -35 -10 -42z m447 -5 c-3 -5 -10
-10 -16 -10 -5 0 -9 5 -9 10 0 6 7 10 16 10 8 0 12 -4 9 -10z m6 -45 c20 13 7
-13 -20 -39 -32 -30 -31 -32 -16 39 6 26 8 27 16 12 6 -10 14 -15 20 -12z
m-131 -145 c8 -5 -338 -381 -356 -387 -5 -1 -19 5 -31 15 -22 17 -22 17 175
221 171 178 197 201 201 180 1 -13 7 -26 11 -29z"/>
<path d="M1218 1796 c-23 -17 -23 -36 0 -36 21 0 42 18 42 37 0 17 -20 16 -42
-1z"/>
</g>
</svg>
